# xmcd
# 
# Track frame offsets:
#     150
#     15306
#     23296
#     36271
#     50700
#     63073
#     80894
#     94100
#     111116
#     131754
#     145566
#     159941
#     174129
#     189818
#     203200
#     217973
#     234724
#     251018
#     267298
#     283272
#     300946
#     318448
#     336254
# 
# Disc length: 4713
# 
# Revision: 0
# Processed by: cddbd v1.5.2PL0 Copyright (c) Steve Scherf et al.
# Submitted via: fre:ac v1.0.17
# 
DISCID=33126717
DTITLE=Lenka Filipova - Recital (live) 
DYEAR=2008
DGENRE=Country
TTITLE0=Castecne zatmeni srdce - Live
TTITLE1=Quo vadis ? - Live
TTITLE2=At zije show - Live
TTITLE3=Malo mam - Live
TTITLE4=Green sleeves - Live
TTITLE5=Dobry buh to vi - Live
TTITLE6=Carriekfergus - Live
TTITLE7=Oidche Mhath Leibh - Live
TTITLE8=Soukromi - Live
TTITLE9=Baccardi - Live
TTITLE10=Pratele - Live
TTITLE11=Az budem to mit - Live
TTITLE12=Adaggio - Live
TTITLE13=Je l'aime a mourier (Zamilovana) - Live
TTITLE14=Mosty (Lost In Love) - Live
TTITLE15=La biographie - Live
TTITLE16=Tisic zpusobu jak zabit lasku - Live
TTITLE17=V pondeli rano - Live
TTITLE18=Prsi - Live
TTITLE19=Bravo pane Stress - Live
TTITLE20=Le train qui passe (Za vsechno muze cas) - Live
TTITLE21=Venovani - Live
TTITLE22=V salku caje na Sri Lanku - Live
EXTD=
EXTT0=
EXTT1=
EXTT2=
EXTT3=
EXTT4=
EXTT5=
EXTT6=
EXTT7=
EXTT8=
EXTT9=
EXTT10=
EXTT11=
EXTT12=
EXTT13=
EXTT14=
EXTT15=
EXTT16=
EXTT17=
EXTT18=
EXTT19=
EXTT20=
EXTT21=
EXTT22=
PLAYORDER=
